<svg xmlns="http://www.w3.org/2000/svg" width="162.237" height="161.398" viewBox="0 0 162.237 161.398"><defs><style>.a{fill:#90dea9;}.b{fill:#71bf8c;}.c{fill:#fff;}</style></defs><g transform="translate(0 -1.324)">
    <path id="wave" class="a" d="M76.061,7.209a9.944,9.944,0,0,0,10.125,0l7.356-4.887a5.94,5.94,0,0,1,8.316,1.772l4.731,7.462a9.926,9.926,0,0,0,9.247,4.117l8.709-1.476a5.937,5.937,0,0,1,6.878,5l1.292,8.724a9.944,9.944,0,0,0,6.773,7.532l8.546,2.2a5.954,5.954,0,0,1,4.251,7.375l-2.367,8.482a9.938,9.938,0,0,0,3.126,9.633l6.937,5.5a5.947,5.947,0,0,1,.885,8.461l-5.632,6.8a9.933,9.933,0,0,0-1.059,10.068l4.09,7.819a5.945,5.945,0,0,1-2.627,8.091l-7.912,3.927a9.935,9.935,0,0,0-5.062,8.77l.547,8.807a5.95,5.95,0,0,1-5.694,6.325l-8.819.373a9.944,9.944,0,0,0-8.191,5.957l-3.068,8.265a5.948,5.948,0,0,1-7.771,3.465l-8.216-3.248a9.928,9.928,0,0,0-9.9,2.1l-6.171,6.3a5.952,5.952,0,0,1-8.509,0l-6.181-6.307a9.941,9.941,0,0,0-9.906-2.1l-8.212,3.248a5.942,5.942,0,0,1-7.769-3.465l-3.075-8.265a9.941,9.941,0,0,0-8.191-5.957l-8.816-.373a5.952,5.952,0,0,1-5.694-6.325l.552-8.807a9.943,9.943,0,0,0-5.065-8.77L6.6,109.883a5.946,5.946,0,0,1-2.628-8.091l4.09-7.819A9.92,9.92,0,0,0,7,83.907L1.371,77.1a5.942,5.942,0,0,1,.885-8.457l6.939-5.5a9.941,9.941,0,0,0,3.127-9.632L9.949,45.024a5.947,5.947,0,0,1,4.25-7.368l8.552-2.209a9.943,9.943,0,0,0,6.773-7.531l1.291-8.724a5.941,5.941,0,0,1,6.88-5l8.71,1.476a9.919,9.919,0,0,0,9.244-4.117l4.729-7.462A5.941,5.941,0,0,1,68.7,2.321Z" transform="translate(0 0)"/>
    <path class="b" d="M195.332,143.136a52.488,52.488,0,1,1-52.489-52.481A52.49,52.49,0,0,1,195.332,143.136Z" transform="translate(-61.724 -61.025)"/>
    <path class="c" d="M183.089,235.518l-21.01-21.011,7-7,14.01,14.007L214.6,189.995l7,7.005Z" transform="translate(-110.721 -128.887)"/></g></svg>